<svg width="24" height="24" viewBox="0 0 24 24" fill="none" xmlns="http://www.w3.org/2000/svg">
  <path d="M6.4 6H21L19.4 14.2C19.2 15.1 18.5 15.7 17.6 15.7H8.5L6.4 3H3" stroke="#ff4b1f" stroke-width="2" stroke-linecap="round" stroke-linejoin="round"/>
  <path d="M9 21C9.8 21 10.5 20.3 10.5 19.5C10.5 18.7 9.8 18 9 18C8.2 18 7.5 18.7 7.5 19.5C7.5 20.3 8.2 21 9 21Z" fill="#ff4b1f"/>
  <path d="M18 21C18.8 21 19.5 20.3 19.5 19.5C19.5 18.7 18.8 18 18 18C17.2 18 16.5 18.7 16.5 19.5C16.5 20.3 17.2 21 18 21Z" fill="#ff4b1f"/>
</svg>
